<svg id="wave" style="transform:rotate(0deg); transition: 0.3s" viewBox="0 0 1440 400" version="1.1" xmlns="http://www.w3.org/2000/svg"><defs><linearGradient id="sw-gradient-0" x1="0" x2="0" y1="1" y2="0"><stop stop-color="rgba(62, 83.587, 243, 1)" offset="0%"></stop><stop stop-color="rgba(11, 106.224, 255, 1)" offset="100%"></stop></linearGradient></defs><path style="transform:translate(0, 0px); opacity:1" fill="url(#sw-gradient-0)" d="M0,160L80,133.3C160,107,320,53,480,53.3C640,53,800,107,960,146.7C1120,187,1280,213,1440,240C1600,267,1760,293,1920,300C2080,307,2240,293,2400,273.3C2560,253,2720,227,2880,200C3040,173,3200,147,3360,160C3520,173,3680,227,3840,226.7C4000,227,4160,173,4320,140C4480,107,4640,93,4800,106.7C4960,120,5120,160,5280,186.7C5440,213,5600,227,5760,200C5920,173,6080,107,6240,126.7C6400,147,6560,253,6720,246.7C6880,240,7040,120,7200,73.3C7360,27,7520,53,7680,80C7840,107,8000,133,8160,173.3C8320,213,8480,267,8640,253.3C8800,240,8960,160,9120,133.3C9280,107,9440,133,9600,140C9760,147,9920,133,10080,120C10240,107,10400,93,10560,86.7C10720,80,10880,80,11040,126.7C11200,173,11360,267,11440,313.3L11520,360L11520,400L11440,400C11360,400,11200,400,11040,400C10880,400,10720,400,10560,400C10400,400,10240,400,10080,400C9920,400,9760,400,9600,400C9440,400,9280,400,9120,400C8960,400,8800,400,8640,400C8480,400,8320,400,8160,400C8000,400,7840,400,7680,400C7520,400,7360,400,7200,400C7040,400,6880,400,6720,400C6560,400,6400,400,6240,400C6080,400,5920,400,5760,400C5600,400,5440,400,5280,400C5120,400,4960,400,4800,400C4640,400,4480,400,4320,400C4160,400,4000,400,3840,400C3680,400,3520,400,3360,400C3200,400,3040,400,2880,400C2720,400,2560,400,2400,400C2240,400,2080,400,1920,400C1760,400,1600,400,1440,400C1280,400,1120,400,960,400C800,400,640,400,480,400C320,400,160,400,80,400L0,400Z"></path><defs><linearGradient id="sw-gradient-1" x1="0" x2="0" y1="1" y2="0"><stop stop-color="rgba(71.069, 62, 243, 1)" offset="0%"></stop><stop stop-color="rgba(11, 205.408, 255, 1)" offset="100%"></stop></linearGradient></defs><path style="transform:translate(0, 50px); opacity:0.9" fill="url(#sw-gradient-1)" d="M0,0L80,40C160,80,320,160,480,193.3C640,227,800,213,960,173.3C1120,133,1280,67,1440,60C1600,53,1760,107,1920,166.7C2080,227,2240,293,2400,313.3C2560,333,2720,307,2880,246.7C3040,187,3200,93,3360,46.7C3520,0,3680,0,3840,60C4000,120,4160,240,4320,240C4480,240,4640,120,4800,66.7C4960,13,5120,27,5280,60C5440,93,5600,147,5760,186.7C5920,227,6080,253,6240,240C6400,227,6560,173,6720,160C6880,147,7040,173,7200,173.3C7360,173,7520,147,7680,146.7C7840,147,8000,173,8160,200C8320,227,8480,253,8640,233.3C8800,213,8960,147,9120,160C9280,173,9440,267,9600,273.3C9760,280,9920,200,10080,153.3C10240,107,10400,93,10560,133.3C10720,173,10880,267,11040,293.3C11200,320,11360,280,11440,260L11520,240L11520,400L11440,400C11360,400,11200,400,11040,400C10880,400,10720,400,10560,400C10400,400,10240,400,10080,400C9920,400,9760,400,9600,400C9440,400,9280,400,9120,400C8960,400,8800,400,8640,400C8480,400,8320,400,8160,400C8000,400,7840,400,7680,400C7520,400,7360,400,7200,400C7040,400,6880,400,6720,400C6560,400,6400,400,6240,400C6080,400,5920,400,5760,400C5600,400,5440,400,5280,400C5120,400,4960,400,4800,400C4640,400,4480,400,4320,400C4160,400,4000,400,3840,400C3680,400,3520,400,3360,400C3200,400,3040,400,2880,400C2720,400,2560,400,2400,400C2240,400,2080,400,1920,400C1760,400,1600,400,1440,400C1280,400,1120,400,960,400C800,400,640,400,480,400C320,400,160,400,80,400L0,400Z"></path><defs><linearGradient id="sw-gradient-2" x1="0" x2="0" y1="1" y2="0"><stop stop-color="rgba(62, 138.769, 243, 1)" offset="0%"></stop><stop stop-color="rgba(11, 89.693, 255, 1)" offset="100%"></stop></linearGradient></defs><path style="transform:translate(0, 100px); opacity:0.8" fill="url(#sw-gradient-2)" d="M0,40L80,33.3C160,27,320,13,480,46.7C640,80,800,160,960,160C1120,160,1280,80,1440,100C1600,120,1760,240,1920,266.7C2080,293,2240,227,2400,173.3C2560,120,2720,80,2880,73.3C3040,67,3200,93,3360,93.3C3520,93,3680,67,3840,106.7C4000,147,4160,253,4320,280C4480,307,4640,253,4800,200C4960,147,5120,93,5280,60C5440,27,5600,13,5760,20C5920,27,6080,53,6240,93.3C6400,133,6560,187,6720,233.3C6880,280,7040,320,7200,313.3C7360,307,7520,253,7680,246.7C7840,240,8000,280,8160,280C8320,280,8480,240,8640,246.7C8800,253,8960,307,9120,286.7C9280,267,9440,173,9600,166.7C9760,160,9920,240,10080,240C10240,240,10400,160,10560,120C10720,80,10880,80,11040,80C11200,80,11360,80,11440,80L11520,80L11520,400L11440,400C11360,400,11200,400,11040,400C10880,400,10720,400,10560,400C10400,400,10240,400,10080,400C9920,400,9760,400,9600,400C9440,400,9280,400,9120,400C8960,400,8800,400,8640,400C8480,400,8320,400,8160,400C8000,400,7840,400,7680,400C7520,400,7360,400,7200,400C7040,400,6880,400,6720,400C6560,400,6400,400,6240,400C6080,400,5920,400,5760,400C5600,400,5440,400,5280,400C5120,400,4960,400,4800,400C4640,400,4480,400,4320,400C4160,400,4000,400,3840,400C3680,400,3520,400,3360,400C3200,400,3040,400,2880,400C2720,400,2560,400,2400,400C2240,400,2080,400,1920,400C1760,400,1600,400,1440,400C1280,400,1120,400,960,400C800,400,640,400,480,400C320,400,160,400,80,400L0,400Z"></path></svg>